<svg width="97" height="96" viewBox="0 0 97 96" fill="none" xmlns="http://www.w3.org/2000/svg">
<path d="M0.5 48C0.5 21.4903 21.9903 0 48.5 0V0C75.0097 0 96.5 21.4903 96.5 48V48C96.5 74.5097 75.0097 96 48.5 96V96C21.9903 96 0.5 74.5097 0.5 48V48Z" fill="#96BB7C"/>
<path d="M29.5 40.7999C29.4995 37.9006 30.6648 35.1228 32.7336 33.0916C34.8025 31.0603 37.6012 29.9462 40.5 29.9999C43.9346 29.9817 47.212 31.4383 49.5 33.9999C51.788 31.4383 55.0654 29.9817 58.5 29.9999C61.3988 29.9462 64.1975 31.0603 66.2664 33.0916C68.3352 35.1228 69.5005 37.9006 69.5 40.7999C69.5 51.5119 56.742 59.5999 49.5 65.9999C42.274 59.5459 29.5 51.5199 29.5 40.7999Z" fill="white"/>
</svg>
