<svg width="25" height="23" viewBox="0 0 25 23" fill="none" xmlns="http://www.w3.org/2000/svg">
<g clip-path="url(#clip0_2636_1548)" filter="url(#filter0_d_2636_1548)">
<path d="M5 9.90039C5.13261 9.90039 5.25979 9.95307 5.35355 10.0468C5.44732 10.1406 5.5 10.2678 5.5 10.4004V12.9004C5.5 13.1656 5.60536 13.42 5.79289 13.6075C5.98043 13.795 6.23478 13.9004 6.5 13.9004H18.5C18.7652 13.9004 19.0196 13.795 19.2071 13.6075C19.3946 13.42 19.5 13.1656 19.5 12.9004V10.4004C19.5 10.2678 19.5527 10.1406 19.6464 10.0468C19.7402 9.95307 19.8674 9.90039 20 9.90039C20.1326 9.90039 20.2598 9.95307 20.3536 10.0468C20.4473 10.1406 20.5 10.2678 20.5 10.4004V12.9004C20.5 13.4308 20.2893 13.9395 19.9142 14.3146C19.5391 14.6897 19.0304 14.9004 18.5 14.9004H6.5C5.96957 14.9004 5.46086 14.6897 5.08579 14.3146C4.71071 13.9395 4.5 13.4308 4.5 12.9004V10.4004C4.5 10.2678 4.55268 10.1406 4.64645 10.0468C4.74021 9.95307 4.86739 9.90039 5 9.90039V9.90039Z" fill="#737373"/>
<path d="M12.1457 11.854C12.1921 11.9006 12.2473 11.9375 12.308 11.9627C12.3688 11.9879 12.4339 12.0009 12.4997 12.0009C12.5654 12.0009 12.6305 11.9879 12.6913 11.9627C12.752 11.9375 12.8072 11.9006 12.8537 11.854L15.8537 8.854C15.9475 8.76011 16.0003 8.63278 16.0003 8.5C16.0003 8.36722 15.9475 8.23989 15.8537 8.146C15.7598 8.05211 15.6324 7.99937 15.4997 7.99937C15.3669 7.99937 15.2395 8.05211 15.1457 8.146L12.9997 10.293V1.5C12.9997 1.36739 12.947 1.24021 12.8532 1.14645C12.7594 1.05268 12.6323 1 12.4997 1C12.367 1 12.2399 1.05268 12.1461 1.14645C12.0523 1.24021 11.9997 1.36739 11.9997 1.5V10.293L9.85366 8.146C9.75977 8.05211 9.63243 7.99937 9.49966 7.99937C9.36688 7.99937 9.23954 8.05211 9.14566 8.146C9.05177 8.23989 8.99902 8.36722 8.99902 8.5C8.99902 8.63278 9.05177 8.76011 9.14566 8.854L12.1457 11.854V11.854Z" fill="#737373"/>
</g>
<defs>
<filter id="filter0_d_2636_1548" x="0.5" y="0" width="24" height="24" filterUnits="userSpaceOnUse" color-interpolation-filters="sRGB">
<feFlood flood-opacity="0" result="BackgroundImageFix"/>
<feColorMatrix in="SourceAlpha" type="matrix" values="0 0 0 0 0 0 0 0 0 0 0 0 0 0 0 0 0 0 127 0" result="hardAlpha"/>
<feOffset dy="4"/>
<feGaussianBlur stdDeviation="2"/>
<feComposite in2="hardAlpha" operator="out"/>
<feColorMatrix type="matrix" values="0 0 0 0 0 0 0 0 0 0 0 0 0 0 0 0 0 0 0.25 0"/>
<feBlend mode="normal" in2="BackgroundImageFix" result="effect1_dropShadow_2636_1548"/>
<feBlend mode="normal" in="SourceGraphic" in2="effect1_dropShadow_2636_1548" result="shape"/>
</filter>
<clipPath id="clip0_2636_1548">
<rect width="16" height="16" fill="white" transform="translate(4.5)"/>
</clipPath>
</defs>
</svg>
